<svg xmlns="http://www.w3.org/2000/svg" version="1.1" xmlns:xlink="http://www.w3.org/1999/xlink" xmlns:svgjs="http://svgjs.dev/svgjs" width="1500" height="935" viewBox="0 0 1500 935"><g transform="matrix(1,0,0,1,-0.9090909090909918,0.3785425101214628)"><svg viewBox="0 0 396 247" data-background-color="#ffffff" preserveAspectRatio="xMidYMid meet" height="935" width="1500" xmlns="http://www.w3.org/2000/svg" xmlns:xlink="http://www.w3.org/1999/xlink"><g id="tight-bounds" transform="matrix(1,0,0,1,0.2400000000000091,-0.09999999999999432)"><svg viewBox="0 0 395.52 247.2" height="247.2" width="395.52"><g><svg viewBox="0 0 395.52 247.2" height="247.2" width="395.52"><g transform="matrix(1,0,0,1,0,83.73448072442643)"><svg viewBox="0 0 395.52 79.73103855114712" height="79.73103855114712" width="395.52"><g><svg viewBox="0 0 395.52 79.73103855114712" height="79.73103855114712" width="395.52"><g><svg viewBox="0 0 395.52 79.73103855114712" height="79.73103855114712" width="395.52"><g><svg viewBox="0 0 395.52 79.73103855114712" height="79.73103855114712" width="395.52"><g id="textblocktransform"><svg viewBox="0 0 395.52 79.73103855114712" height="79.73103855114712" width="395.52" id="textblock"><g><svg viewBox="0 0 395.52 79.73103855114712" height="79.73103855114712" width="395.52"><g transform="matrix(1,0,0,1,0,0)"><svg width="395.52" viewBox="-1.1400000000000001 -39.82 256.25 52.46" height="79.73103855114712" data-palette-color="#8abe53"><path d="M23.36-19.02L23.36-25.93 15.36-25.93 15.36-32.4 27.88-32.4 34.38-25.93 34.38-19.34 31.13-16.09 34.38-12.84 34.38-6.47 27.88 0 15.36 0 15.36-6.47 23.36-6.47 23.36-13.38 15.36-13.38 15.36-19.02 23.36-19.02ZM2.86 0L2.86-32.4 13.65-32.4 13.65 0 2.86 0ZM67.94-19.46L67.94-6.47 61.47 0 54.25 0 54.25-6.05 56.93-6.05 56.93-19.46 54.25-19.46 54.25-25.93 61.47-25.93 67.94-19.46ZM49.73-19.46L49.73-6.05 52.54-6.05 52.54 0 45.29 0 38.82-6.47 38.82-19.46 45.29-25.93 52.54-25.93 52.54-19.46 49.73-19.46ZM72.8-35.82L83.59-35.82 83.59 0 72.8 0 72.8-35.82ZM90.13-6.05L90.13-19.46 85.3-19.46 85.3-22.73 88.47-25.93 94.38-25.93 100.87-19.46 100.87-6.47 94.38 0 85.3 0 85.3-6.05 90.13-6.05ZM116.13-32.4L116.13 0 111.83 0 105.34-6.47 105.34-25.93 111.83-32.4 116.13-32.4ZM125.02-25.93L117.84-25.93 117.84-32.4 129.34-32.4 135.81-25.93 135.81-19.41 125.02-19.41 125.02-25.93ZM129.34 0L117.84 0 117.84-6.47 125.02-6.47 125.02-11.21 135.81-11.21 135.81-6.47 129.34 0ZM168.3 0L157.75 0 157.75-19.46 142.4-19.46 142.4-22.68 145.64-25.93 161.83-25.93 168.3-19.46 168.3 0ZM144.57-15.09L156.04-15.09 156.04-10.6 150.48-10.6 150.48-6.05 156.04-6.05 156.04-3.2 152.82 0 144.57 0 140.22-4.27 140.22-10.77 144.57-15.09ZM184.34 0L173.52 0 173.52-25.93 184.34-25.93 184.34 0ZM190.44 0L190.44-19.46 186.05-19.46 186.05-22.51 189.44-25.93 197.79-25.93 201.26-22.46 201.26 0 190.44 0ZM207.36 0L207.36-19.46 202.97-19.46 202.97-22.46 206.29-25.93 212.88-25.93 218.15-20.61 218.15 0 207.36 0ZM233.82 8.64L223.03 8.64 223.03-25.93 233.82-25.93 233.82 8.64ZM240.29-6.05L240.29-19.46 235.53-19.46 235.53-22.73 238.71-25.93 244.61-25.93 251.11-19.46 251.11-6.47 244.61 0 235.53 0 235.53-6.05 240.29-6.05Z" opacity="1" transform="matrix(1,0,0,1,0,0)" fill="#8abe53" class="wordmark-text-0" data-fill-palette-color="primary" id="text-0"></path></svg></g></svg></g></svg></g></svg></g></svg></g></svg></g></svg></g></svg></g><defs></defs></svg><rect width="395.52" height="247.2" fill="none" stroke="none" visibility="hidden"></rect></g></svg></g></svg>